<svg xmlns="http://www.w3.org/2000/svg" xmlns:xlink="http://www.w3.org/1999/xlink" width="1366" zoomAndPan="magnify" viewBox="0 0 1024.5 576" height="768" preserveAspectRatio="xMidYMid meet" version="1.0"><defs><g/><clipPath id="bae763df44"><path d="M 441.582031 182.019531 L 581.761719 182.019531 L 581.761719 397 L 441.582031 397 Z M 441.582031 182.019531 " clip-rule="nonzero"/></clipPath><clipPath id="d242a021a8"><path d="M 441.582031 326.398438 L 441.582031 252.191406 C 441.582031 213.402344 472.964844 182.019531 511.589844 182.019531 C 550.378906 182.019531 581.761719 213.402344 581.761719 252.191406 L 581.761719 326.398438 C 581.761719 365.1875 550.378906 396.570312 511.589844 396.570312 C 472.964844 396.410156 441.582031 365.027344 441.582031 326.398438 " clip-rule="nonzero"/></clipPath><clipPath id="e68fe1c473"><path d="M 508 224.109375 L 526 224.109375 L 526 251 L 508 251 Z M 508 224.109375 " clip-rule="nonzero"/></clipPath><clipPath id="3d87608fb9"><path d="M 524 224.109375 L 529 224.109375 L 529 232 L 524 232 Z M 524 224.109375 " clip-rule="nonzero"/></clipPath><clipPath id="bed75d9a45"><path d="M 496 249 L 515 249 L 515 354.609375 L 496 354.609375 Z M 496 249 " clip-rule="nonzero"/></clipPath><clipPath id="2b067cb3c2"><path d="M 482.203125 242 L 541.453125 242 L 541.453125 331 L 482.203125 331 Z M 482.203125 242 " clip-rule="nonzero"/></clipPath></defs><g clip-path="url(#bae763df44)"><g clip-path="url(#d242a021a8)"><path fill="#f2d7d7" d="M 581.761719 182.019531 L 581.761719 396.410156 L 441.582031 396.410156 L 441.582031 182.019531 Z M 581.761719 182.019531 " fill-opacity="1" fill-rule="nonzero"/></g></g><g clip-path="url(#e68fe1c473)"><path fill="#737373" d="M 517.394531 249.75 C 515.136719 249.96875 513.011719 248.871094 511.496094 247.25 C 509.816406 245.378906 509.097656 242.988281 509.183594 240.542969 C 509.265625 238.152344 510.148438 235.871094 511.332031 233.839844 C 512.460938 231.914062 513.8125 230.183594 515.601562 228.867188 C 517.421875 227.492188 519.515625 226.558594 521.554688 225.570312 C 522.273438 225.238281 524.421875 224.140625 524.449219 225.652344 C 524.476562 226.199219 524.3125 226.804688 524.257812 227.355469 C 524.203125 228.097656 524.203125 228.839844 524.175781 229.609375 C 524.175781 230.378906 524.175781 231.148438 524.117188 231.914062 C 524.0625 232.65625 523.925781 233.425781 523.84375 234.167969 C 523.679688 235.214844 523.539062 236.230469 523.375 237.300781 C 523.238281 238.179688 523.125 239.058594 522.960938 239.941406 C 522.65625 241.503906 522.164062 243.097656 521.554688 244.582031 C 521.058594 245.847656 520.535156 247.140625 519.65625 248.238281 C 518.882812 249.226562 517.863281 249.804688 516.59375 249.859375 C 516.183594 249.859375 515.796875 249.832031 515.382812 249.804688 C 514.96875 249.777344 514.96875 250.382812 515.382812 250.4375 C 516.402344 250.574219 517.421875 250.519531 518.386719 250.132812 C 519.625 249.613281 520.453125 248.402344 521.085938 247.25 C 522.21875 245.132812 523.015625 242.796875 523.511719 240.460938 C 523.679688 239.71875 523.761719 238.976562 523.898438 238.261719 C 524.257812 235.84375 524.78125 233.398438 524.835938 230.925781 C 524.863281 229.359375 524.863281 227.820312 525.082031 226.253906 C 525.136719 225.761719 525.164062 225.210938 524.835938 224.773438 C 524.53125 224.359375 524.007812 224.277344 523.539062 224.332031 C 522.246094 224.46875 521.003906 225.238281 519.847656 225.789062 C 518.773438 226.308594 517.644531 226.859375 516.621094 227.519531 C 514.582031 228.785156 512.847656 230.433594 511.523438 232.464844 C 510.230469 234.445312 509.128906 236.640625 508.769531 239.003906 C 508.328125 241.5625 508.6875 244.308594 510.089844 246.535156 C 511.332031 248.484375 513.34375 250.078125 515.714844 250.464844 C 516.265625 250.546875 516.871094 250.601562 517.421875 250.519531 C 517.808594 250.355469 517.808594 249.695312 517.394531 249.75 Z M 517.394531 249.75 " fill-opacity="1" fill-rule="nonzero"/></g><path fill="#737373" d="M 524.089844 236.503906 C 525.660156 234.554688 527.234375 232.601562 528.804688 230.652344 C 529.132812 230.210938 529.519531 229.746094 529.851562 229.332031 C 529.90625 229.277344 529.988281 229.140625 530.070312 229.167969 C 530.292969 229.25 530.292969 230.074219 530.320312 230.210938 C 530.402344 230.925781 530.402344 231.640625 530.375 232.355469 C 530.238281 235.351562 529.160156 238.207031 527.894531 240.902344 C 527.234375 242.273438 526.515625 243.566406 525.855469 244.886719 C 525.304688 245.929688 524.808594 247.054688 523.898438 247.851562 C 522.078125 249.53125 519.433594 249.886719 517.035156 249.667969 C 516.621094 249.640625 516.621094 250.242188 517.035156 250.296875 C 519.296875 250.519531 521.695312 250.160156 523.59375 248.871094 C 524.667969 248.128906 525.359375 247.140625 525.964844 245.984375 C 526.710938 244.554688 527.480469 243.183594 528.199219 241.726562 C 529.601562 238.867188 530.761719 235.871094 530.980469 232.683594 C 531.035156 231.886719 531.007812 231.0625 530.953125 230.265625 C 530.898438 229.746094 530.898438 228.949219 530.402344 228.589844 C 529.742188 228.179688 529.273438 229.03125 528.96875 229.414062 C 527.207031 231.640625 525.441406 233.8125 523.648438 236.011719 C 523.375 236.367188 523.84375 236.835938 524.089844 236.503906 Z M 524.089844 236.503906 " fill-opacity="1" fill-rule="nonzero"/><g clip-path="url(#3d87608fb9)"><path fill="#737373" d="M 525.25 225.816406 C 525.691406 225.429688 526.460938 224.828125 527.039062 224.992188 C 527.398438 225.074219 527.5625 225.570312 527.671875 225.925781 C 527.976562 227.191406 527.8125 228.589844 527.617188 229.855469 C 527.5625 230.320312 527.453125 230.816406 527.371094 231.285156 C 527.289062 231.695312 527.894531 231.832031 528.003906 231.449219 C 528.253906 230.210938 528.445312 228.949219 528.472656 227.683594 C 528.5 226.667969 528.527344 224.714844 527.261719 224.386719 C 526.378906 224.140625 525.46875 224.855469 524.835938 225.375 C 524.503906 225.625 524.945312 226.0625 525.25 225.816406 Z M 525.25 225.816406 " fill-opacity="1" fill-rule="nonzero"/></g><path fill="#737373" d="M 525 265.355469 C 527.703125 264.175781 530.484375 263.242188 533.351562 262.582031 C 534.066406 262.390625 534.785156 262.25 535.5 262.113281 C 535.832031 262.058594 536.1875 261.976562 536.492188 261.921875 C 536.824219 261.867188 537.292969 261.703125 537.566406 261.949219 C 538.035156 262.335938 538.035156 263.214844 537.980469 263.734375 C 537.898438 264.367188 537.59375 264.945312 537.265625 265.464844 C 536.574219 266.539062 535.582031 267.445312 534.589844 268.242188 C 533.570312 269.066406 532.441406 269.808594 531.285156 270.441406 C 530.097656 271.070312 528.886719 271.59375 527.617188 271.980469 C 526.351562 272.390625 524.917969 272.722656 523.734375 271.898438 C 522.796875 271.238281 522.246094 270.164062 521.722656 269.203125 C 521.058594 267.996094 520.453125 266.703125 520.921875 265.300781 C 521.335938 264.066406 522.328125 263.105469 523.238281 262.277344 C 524.203125 261.453125 525.25 260.714844 526.378906 260.082031 C 528.609375 258.84375 531.089844 258.074219 533.625 257.882812 C 534.203125 257.855469 534.921875 257.71875 535.5 258.019531 C 535.996094 258.265625 536.273438 258.761719 536.410156 259.257812 C 536.710938 260.519531 535.914062 261.730469 535.195312 262.691406 C 533.542969 264.863281 531.558594 266.8125 529.382812 268.433594 C 528.335938 269.203125 527.207031 269.972656 525.910156 270.21875 C 524.753906 270.441406 523.511719 270.21875 522.492188 269.644531 C 521.96875 269.367188 521.527344 268.984375 521.113281 268.570312 C 520.839844 268.269531 520.398438 268.738281 520.675781 269.011719 C 521.5 269.972656 522.6875 270.632812 523.953125 270.824219 C 525.332031 271.070312 526.625 270.796875 527.839844 270.164062 C 529.160156 269.476562 530.375 268.488281 531.503906 267.5 C 532.660156 266.511719 533.738281 265.382812 534.730469 264.257812 C 535.636719 263.1875 536.683594 262.003906 537.015625 260.601562 C 537.265625 259.53125 536.988281 258.210938 535.996094 257.554688 C 535.445312 257.167969 534.757812 257.167969 534.09375 257.222656 C 533.378906 257.25 532.6875 257.359375 532.027344 257.441406 C 530.621094 257.691406 529.273438 258.074219 527.921875 258.625 C 526.625 259.175781 525.414062 259.859375 524.257812 260.65625 C 523.125 261.453125 522.023438 262.390625 521.199219 263.542969 C 520.316406 264.699219 519.902344 266.042969 520.289062 267.472656 C 520.480469 268.1875 520.839844 268.875 521.199219 269.535156 C 521.5 270.082031 521.832031 270.6875 522.191406 271.210938 C 522.960938 272.253906 523.980469 273.023438 525.359375 273.105469 C 526.820312 273.132812 528.363281 272.527344 529.683594 271.953125 C 532.332031 270.824219 534.949219 269.203125 536.90625 267.058594 C 537.816406 266.070312 538.640625 264.835938 538.667969 263.433594 C 538.695312 262.855469 538.585938 262.113281 538.171875 261.648438 C 537.703125 261.125 537.042969 261.207031 536.4375 261.34375 C 533.214844 261.894531 530.042969 262.800781 526.984375 263.984375 C 526.242188 264.257812 525.496094 264.558594 524.753906 264.917969 C 524.3125 264.972656 524.640625 265.550781 525 265.355469 Z M 525 265.355469 " fill-opacity="1" fill-rule="nonzero"/><g clip-path="url(#bed75d9a45)"><path fill="#737373" d="M 501.578125 354.027344 C 499.921875 347.984375 498.765625 341.828125 498.078125 335.644531 C 497.195312 327.871094 497.085938 320.011719 497.773438 312.261719 C 498.40625 305.28125 499.703125 298.359375 501.191406 291.542969 C 502.457031 285.554688 503.890625 279.589844 505.570312 273.710938 C 507.640625 266.484375 510.089844 259.3125 512.875 252.304688 C 513.261719 251.34375 513.648438 250.382812 514.03125 249.417969 C 514.199219 249.035156 513.5625 248.898438 513.398438 249.253906 C 510.449219 256.425781 507.886719 263.761719 505.628906 271.210938 C 503.835938 277.144531 502.347656 283.109375 500.996094 289.125 C 499.507812 295.941406 498.105469 302.808594 497.332031 309.734375 C 496.449219 317.511719 496.421875 325.339844 497.140625 333.089844 C 497.71875 339.628906 498.847656 346.113281 500.445312 352.460938 C 500.613281 353.039062 500.75 353.671875 500.914062 354.25 C 501.082031 354.578125 501.660156 354.441406 501.578125 354.027344 Z M 501.578125 354.027344 " fill-opacity="1" fill-rule="nonzero"/></g><path fill="#737373" d="M 497.359375 325.78125 C 499.480469 317.457031 501.769531 309.183594 504.277344 300.996094 C 505.460938 297.148438 506.648438 293.300781 507.96875 289.511719 C 509.210938 286.074219 510.699219 282.722656 512.65625 279.671875 C 515.078125 275.851562 518.109375 272.472656 521.609375 269.617188 C 521.914062 269.367188 521.5 268.902344 521.171875 269.175781 C 518.027344 271.703125 515.273438 274.671875 512.984375 277.996094 C 510.835938 281.101562 509.183594 284.453125 507.832031 288 C 506.453125 291.597656 505.351562 295.308594 504.195312 298.988281 C 502.871094 303.25 501.578125 307.535156 500.390625 311.824219 C 499.097656 316.410156 497.882812 321 496.699219 325.617188 C 496.644531 326 497.25 326.191406 497.359375 325.78125 Z M 497.359375 325.78125 " fill-opacity="1" fill-rule="nonzero"/><g clip-path="url(#2b067cb3c2)"><path fill="#737373" d="M 496.917969 330.261719 C 495.625 324.460938 493.5 318.9375 491.488281 313.386719 C 489.476562 307.894531 487.523438 302.316406 486.53125 296.488281 C 485.453125 290.113281 485.976562 283.65625 486.445312 277.253906 C 486.695312 273.957031 486.96875 270.632812 487.273438 267.335938 C 487.578125 264.09375 487.988281 260.878906 488.320312 257.609375 C 488.625 254.585938 488.816406 251.480469 488.292969 248.457031 C 487.851562 246.066406 486.941406 242.6875 484.160156 242.136719 C 483.609375 242 483.003906 242.082031 482.449219 242.300781 C 482.3125 242.359375 482.203125 242.46875 482.230469 242.605469 C 482.367188 243.894531 482.863281 245.078125 483.414062 246.230469 C 484.050781 247.496094 484.628906 248.734375 485.234375 249.96875 C 486.472656 252.496094 487.6875 255.023438 488.925781 257.554688 C 491.40625 262.664062 493.886719 267.71875 496.367188 272.832031 C 498.847656 277.914062 501.328125 282.96875 503.78125 288.054688 C 505.820312 292.285156 507.171875 296.875 507.527344 301.546875 C 507.722656 303.742188 507.667969 305.941406 507.472656 308.113281 C 507.363281 309.488281 507.226562 310.859375 506.921875 312.207031 C 506.621094 313.609375 506.152344 314.953125 505.628906 316.300781 C 505.1875 317.429688 504.691406 318.5 504.140625 319.542969 C 503.835938 320.121094 503.503906 320.726562 503.175781 321.273438 C 502.925781 321.6875 502.539062 322.539062 502.101562 322.730469 C 501.4375 322.976562 501.164062 321.824219 501.164062 321.414062 C 501.136719 320.753906 501.328125 320.121094 501.546875 319.515625 C 501.988281 318.335938 502.539062 317.207031 503.0625 316.054688 C 504.085938 313.773438 505.1875 311.464844 506.425781 309.265625 C 508.546875 305.476562 511.195312 301.984375 514.308594 298.933594 C 521.03125 292.339844 529.628906 287.890625 538.863281 285.9375 C 539.605469 285.773438 540.378906 285.636719 541.148438 285.5 C 541.453125 285.441406 541.425781 284.976562 541.148438 284.867188 C 538.503906 284.207031 536.464844 287.09375 534.976562 288.824219 C 533.15625 290.9375 531.367188 293.054688 529.628906 295.226562 C 526.128906 299.566406 522.65625 303.964844 518.800781 308.003906 C 516.621094 310.257812 514.335938 312.425781 511.882812 314.378906 C 511.578125 314.625 511.992188 315.066406 512.324219 314.816406 C 516.566406 311.4375 520.289062 307.480469 523.816406 303.359375 C 527.316406 299.210938 530.648438 294.867188 534.175781 290.746094 C 535.140625 289.59375 536.132812 288.464844 537.152344 287.367188 C 538.144531 286.324219 539.46875 285.113281 541.039062 285.472656 C 541.039062 285.25 541.039062 285.058594 541.039062 284.839844 C 537.125 285.5 533.324219 286.542969 529.65625 288.054688 C 524.78125 290.058594 520.261719 292.863281 516.265625 296.296875 C 512.957031 299.15625 509.953125 302.480469 507.582031 306.1875 C 506.152344 308.386719 504.9375 310.75 503.835938 313.085938 C 503.257812 314.296875 502.707031 315.53125 502.15625 316.742188 C 501.660156 317.867188 501.023438 318.992188 500.777344 320.203125 C 500.554688 321.164062 500.554688 322.457031 501.4375 323.117188 C 502.429688 323.859375 503.203125 322.59375 503.644531 321.878906 C 504.910156 319.820312 505.957031 317.566406 506.785156 315.285156 C 507.171875 314.269531 507.527344 313.167969 507.722656 312.097656 C 508.050781 310.339844 508.246094 308.496094 508.355469 306.710938 C 508.660156 301.738281 507.941406 296.683594 506.289062 291.957031 C 505.542969 289.894531 504.578125 287.890625 503.617188 285.910156 C 502.347656 283.273438 501.050781 280.660156 499.757812 278.023438 C 497.195312 272.722656 494.605469 267.472656 492.042969 262.167969 C 489.476562 256.867188 486.886719 251.617188 484.324219 246.3125 C 483.746094 245.078125 483.085938 243.839844 483.003906 242.46875 C 482.945312 242.550781 482.835938 242.6875 482.78125 242.769531 C 484.078125 242.21875 485.480469 242.960938 486.253906 244.035156 C 487.082031 245.1875 487.464844 246.644531 487.742188 248.019531 C 488.375 250.984375 488.210938 254.089844 487.90625 257.085938 C 487.605469 260.273438 487.191406 263.433594 486.886719 266.59375 C 486.585938 269.808594 486.308594 273.023438 486.0625 276.238281 C 485.59375 282.53125 485.042969 288.90625 485.894531 295.144531 C 486.695312 300.832031 488.511719 306.300781 490.46875 311.738281 C 492.425781 317.179688 494.550781 322.566406 495.980469 328.171875 C 496.175781 328.886719 496.3125 329.574219 496.476562 330.289062 C 496.394531 330.835938 497 330.644531 496.917969 330.261719 Z M 496.917969 330.261719 " fill-opacity="1" fill-rule="nonzero"/></g><g fill="#000000" fill-opacity="1"><g transform="translate(428.994531, 237.548062)"><g><path d="M 0.234375 -0.75 L 0.816406 -2.609375 L 0.667969 -2.65625 C 0.453125 -2.304688 0.167969 -2.214844 -1.089844 -2.609375 L -4.507812 -3.675781 L -3.804688 -5.875 C -3.34375 -7.292969 -2.9375 -7.492188 -2.398438 -7.445312 L -2.347656 -7.59375 L -4.167969 -8.164062 L -4.214844 -8.011719 C -3.742188 -7.746094 -3.523438 -7.347656 -3.980469 -5.929688 L -4.683594 -3.734375 L -8.742188 -5.003906 L -7.863281 -7.820312 C -7.476562 -9.050781 -6.984375 -9.46875 -5.984375 -9.601562 L -5.972656 -9.734375 L -7.367188 -10.023438 L -9.332031 -3.746094 L -9.183594 -3.699219 C -8.964844 -4.054688 -8.683594 -4.144531 -7.425781 -3.75 L -1.328125 -1.84375 C -0.0703125 -1.449219 0.109375 -1.210938 0.0859375 -0.800781 Z M 0.234375 -0.75 "/></g></g></g><g fill="#000000" fill-opacity="1"><g transform="translate(433.729816, 224.240823)"><g><path d="M 0.359375 -0.699219 L 3.328125 -6.46875 L 2.109375 -7.195312 L 2.023438 -7.09375 C 2.640625 -6.292969 2.726562 -5.703125 2.136719 -4.554688 L 1.085938 -2.519531 C 0.914062 -2.1875 0.644531 -2.101562 0.316406 -2.269531 L -6.308594 -5.679688 C -7.480469 -6.28125 -7.617188 -6.546875 -7.523438 -6.949219 L -7.664062 -7.019531 L -8.554688 -5.289062 L -8.414062 -5.214844 C -8.140625 -5.527344 -7.847656 -5.566406 -6.675781 -4.964844 L -0.996094 -2.042969 C 0.175781 -1.4375 0.316406 -1.175781 0.21875 -0.773438 Z M 0.359375 -0.699219 "/></g></g></g><g fill="#000000" fill-opacity="1"><g transform="translate(440.392714, 212.173784)"><g><path d="M 3.6875 -4.441406 C 5.179688 -6.332031 5.617188 -9.339844 2.796875 -11.566406 C 0.0429688 -13.742188 -2.886719 -12.714844 -4.386719 -10.8125 C -6.265625 -8.429688 -5.863281 -5.539062 -3.480469 -3.660156 C -0.726562 -1.484375 2.179688 -2.53125 3.6875 -4.441406 Z M -3.609375 -4.746094 C -5.464844 -6.207031 -5.929688 -8.417969 -4.429688 -10.316406 C -2.769531 -12.421875 0.617188 -12.320312 2.910156 -10.511719 C 4.824219 -9.003906 5.195312 -6.792969 3.703125 -4.902344 C 2.035156 -2.789062 -1.335938 -2.953125 -3.609375 -4.746094 Z M -3.609375 -4.746094 "/></g></g></g><g fill="#000000" fill-opacity="1"><g transform="translate(451.85569, 198.843375)"><g><path d="M 6.230469 -5.164062 C 6.472656 -5.367188 6.652344 -5.597656 6.703125 -5.695312 L 6.609375 -5.804688 C 6.550781 -5.738281 6.507812 -5.679688 6.441406 -5.625 C 6.09375 -5.328125 5.367188 -5.539062 3.925781 -6.304688 C 2.40625 -7.121094 1.519531 -7.8125 -0.121094 -6.777344 C 1.15625 -8.105469 1.277344 -9.578125 0.386719 -10.628906 C -0.515625 -11.6875 -1.855469 -11.582031 -3.882812 -9.855469 L -5.890625 -8.148438 L -5.789062 -8.03125 C -5.417969 -8.214844 -5.128906 -8.140625 -4.277344 -7.136719 L -0.140625 -2.265625 C 0.710938 -1.261719 0.738281 -0.964844 0.5 -0.628906 L 0.601562 -0.511719 L 2.085938 -1.769531 L 1.984375 -1.890625 C 1.613281 -1.707031 1.324219 -1.78125 0.46875 -2.785156 L -1.726562 -5.375 L -0.976562 -6.011719 C 0.71875 -7.449219 1.710938 -6.546875 3.519531 -5.660156 C 4.777344 -5.039062 5.445312 -4.496094 6.230469 -5.164062 Z M -1.859375 -5.527344 L -4.703125 -8.875 C -4.519531 -9.054688 -4.351562 -9.214844 -4.179688 -9.363281 C -2.277344 -10.976562 -0.996094 -10.882812 -0.0859375 -9.8125 C 0.785156 -8.785156 0.566406 -7.585938 -0.699219 -6.507812 Z M -1.859375 -5.527344 "/></g></g></g><g fill="#000000" fill-opacity="1"><g transform="translate(463.481077, 189.705725)"><g><path d="M 0.683594 -0.394531 L 6.621094 -3.832031 L 5.878906 -5.371094 L 5.75 -5.332031 C 5.945312 -4.054688 5.460938 -3.375 4.34375 -2.730469 L 2.273438 -1.53125 C 1.953125 -1.34375 1.679688 -1.417969 1.492188 -1.742188 L -0.753906 -5.621094 L 1.277344 -6.796875 C 2.570312 -7.542969 3.007812 -7.414062 3.371094 -7.015625 L 3.507812 -7.09375 L 2.554688 -8.742188 L 2.417969 -8.664062 C 2.582031 -8.148438 2.476562 -7.703125 1.1875 -6.957031 L -0.847656 -5.78125 L -3.058594 -9.601562 L -0.824219 -10.890625 C 0.289062 -11.535156 1.1875 -11.558594 2.132812 -10.816406 L 2.226562 -10.902344 L 1.226562 -12.292969 L -4.339844 -9.070312 L -4.261719 -8.9375 C -3.863281 -9.050781 -3.59375 -8.925781 -2.933594 -7.785156 L 0.265625 -2.257812 C 0.925781 -1.117188 0.898438 -0.820312 0.601562 -0.53125 Z M 0.683594 -0.394531 "/></g></g></g><g fill="#000000" fill-opacity="1"><g transform="translate(476.268074, 182.924954)"><g><path d="M 7.648438 -2.640625 C 7.945312 -2.75 8.195312 -2.898438 8.277344 -2.972656 L 8.226562 -3.109375 C 8.152344 -3.066406 8.089844 -3.027344 8.007812 -3 C 7.578125 -2.84375 6.972656 -3.296875 5.894531 -4.523438 C 4.757812 -5.820312 4.167969 -6.777344 2.269531 -6.386719 C 3.933594 -7.179688 4.5625 -8.519531 4.097656 -9.8125 C 3.628906 -11.121094 2.339844 -11.492188 -0.167969 -10.59375 L -2.648438 -9.703125 L -2.59375 -9.554688 C -2.183594 -9.59375 -1.941406 -9.425781 -1.496094 -8.183594 L 0.664062 -2.171875 C 1.109375 -0.933594 1.03125 -0.644531 0.6875 -0.414062 L 0.742188 -0.265625 L 2.574219 -0.925781 L 2.519531 -1.074219 C 2.109375 -1.03125 1.867188 -1.203125 1.421875 -2.441406 L 0.273438 -5.636719 L 1.203125 -5.972656 C 3.292969 -6.722656 3.902344 -5.527344 5.285156 -4.058594 C 6.246094 -3.035156 6.679688 -2.292969 7.648438 -2.640625 Z M 0.203125 -5.828125 L -1.28125 -9.964844 C -1.042969 -10.066406 -0.832031 -10.15625 -0.617188 -10.234375 C 1.726562 -11.078125 2.894531 -10.535156 3.371094 -9.214844 C 3.824219 -7.949219 3.199219 -6.902344 1.632812 -6.339844 Z M 0.203125 -5.828125 "/></g></g></g><g fill="#000000" fill-opacity="1"><g transform="translate(490.476516, 178.525457)"><g><path d="M 0.773438 -0.152344 L 2.683594 -0.527344 L 2.652344 -0.679688 C 2.242188 -0.703125 2.027344 -0.90625 1.773438 -2.199219 L 0.542969 -8.46875 C 0.289062 -9.761719 0.410156 -10.035156 0.785156 -10.210938 L 0.753906 -10.363281 L -1.15625 -9.992188 L -1.125 -9.835938 C -0.710938 -9.8125 -0.496094 -9.609375 -0.242188 -8.316406 L 0.984375 -2.046875 C 1.238281 -0.753906 1.117188 -0.480469 0.742188 -0.304688 Z M -1.265625 -10.625 L -1.195312 -10.566406 L 0.714844 -11.699219 C 0.921875 -11.828125 1.007812 -11.917969 0.980469 -12.042969 C 0.949219 -12.199219 0.605469 -12.320312 0.382812 -12.277344 C 0.253906 -12.25 0.148438 -12.203125 -0.0820312 -11.953125 Z M -1.265625 -10.625 "/></g></g></g><g fill="#000000" fill-opacity="1"><g transform="translate(500.086224, 176.909874)"><g><path d="M -0.171875 0.0078125 L 1.386719 -0.0546875 L 1.382812 -0.210938 C 0.878906 -0.292969 0.855469 -0.820312 1.191406 -1.738281 L 1.96875 -3.90625 L 6.230469 -4.074219 L 7.203125 -1.960938 C 7.753906 -0.765625 7.773438 -0.566406 7.378906 -0.449219 L 7.386719 -0.292969 L 9.1875 -0.363281 L 9.183594 -0.519531 C 8.890625 -0.609375 8.582031 -0.796875 8.035156 -1.996094 L 4.222656 -10.300781 L 3.503906 -9.957031 L 3.597656 -9.773438 C 3.707031 -9.578125 3.726562 -9.421875 3.648438 -9.203125 L 0.964844 -1.730469 C 0.511719 -0.480469 0.175781 -0.265625 -0.179688 -0.152344 Z M 2.046875 -4.109375 L 3.863281 -9.210938 L 6.136719 -4.269531 Z M 2.046875 -4.109375 "/></g></g></g><g fill="#000000" fill-opacity="1"><g transform="translate(515.428735, 177.002303)"><g/></g></g><g fill="#000000" fill-opacity="1"><g transform="translate(524.705028, 178.261188)"><g><path d="M 0.757812 0.210938 L 4.238281 1.175781 C 7.273438 2.019531 9.839844 0.386719 10.605469 -2.433594 C 11.277344 -4.90625 10.175781 -7.578125 6.589844 -8.574219 L 3.441406 -9.449219 L 3.402344 -9.296875 C 3.761719 -9.09375 3.859375 -8.8125 3.507812 -7.542969 L 1.796875 -1.386719 C 1.445312 -0.117188 1.214844 0.0703125 0.800781 0.0585938 Z M 2.417969 -0.621094 L 4.71875 -8.902344 L 6.070312 -8.527344 C 9.160156 -7.667969 10.367188 -4.9375 9.621094 -2.261719 C 8.84375 0.539062 6.96875 1.726562 4.332031 0.996094 L 3.035156 0.636719 C 2.277344 0.425781 2.238281 0.0273438 2.417969 -0.621094 Z M 2.417969 -0.621094 "/></g></g></g><g fill="#000000" fill-opacity="1"><g transform="translate(540.278963, 183.257151)"><g><path d="M -0.152344 -0.078125 L 1.242188 0.621094 L 1.3125 0.480469 C 0.910156 0.167969 1.148438 -0.304688 1.882812 -0.945312 L 3.609375 -2.46875 L 7.425781 -0.554688 L 7.253906 1.765625 C 7.15625 3.078125 7.082031 3.261719 6.675781 3.171875 L 6.605469 3.3125 L 8.21875 4.121094 L 8.289062 3.980469 C 8.078125 3.765625 7.898438 3.449219 7.996094 2.136719 L 8.675781 -6.976562 L 7.882812 -7.023438 L 7.875 -6.816406 C 7.875 -6.59375 7.816406 -6.445312 7.644531 -6.292969 L 1.679688 -1.046875 C 0.679688 -0.171875 0.28125 -0.148438 -0.0820312 -0.21875 Z M 3.777344 -2.609375 L 7.835938 -6.195312 L 7.4375 -0.773438 Z M 3.777344 -2.609375 "/></g></g></g><g fill="#000000" fill-opacity="1"><g transform="translate(553.63291, 190.555415)"><g><path d="M 0.621094 0.480469 L 2.164062 1.675781 L 2.257812 1.550781 C 2.003906 1.226562 2.015625 0.925781 2.824219 -0.113281 L 4.902344 -2.796875 L 9.613281 0.847656 L 7.535156 3.535156 C 6.726562 4.574219 6.441406 4.664062 6.066406 4.496094 L 5.96875 4.621094 L 7.507812 5.8125 L 7.605469 5.6875 C 7.347656 5.363281 7.363281 5.066406 8.167969 4.023438 L 12.078125 -1.027344 C 12.886719 -2.070312 13.171875 -2.15625 13.550781 -1.988281 L 13.644531 -2.113281 L 12.105469 -3.308594 L 12.007812 -3.183594 C 12.265625 -2.855469 12.253906 -2.558594 11.445312 -1.519531 L 9.734375 0.691406 L 5.023438 -2.957031 L 6.734375 -5.164062 C 7.542969 -6.207031 7.824219 -6.292969 8.203125 -6.128906 L 8.300781 -6.253906 L 6.761719 -7.445312 L 6.664062 -7.320312 C 6.921875 -6.996094 6.90625 -6.699219 6.101562 -5.65625 L 2.191406 -0.605469 C 1.382812 0.4375 1.097656 0.523438 0.71875 0.359375 Z M 0.621094 0.480469 "/></g></g></g><g fill="#000000" fill-opacity="1"><g transform="translate(566.154391, 201.113469)"><g><path d="M 0.523438 0.589844 L 4.832031 5.4375 L 5.949219 4.5625 L 5.886719 4.445312 C 4.914062 4.734375 4.335938 4.597656 3.480469 3.632812 L 1.957031 1.921875 C 1.710938 1.644531 1.726562 1.359375 2.003906 1.113281 L 7.570312 -3.835938 C 8.554688 -4.710938 8.851562 -4.746094 9.195312 -4.511719 L 9.3125 -4.617188 L 8.015625 -6.070312 L 7.898438 -5.96875 C 8.089844 -5.601562 8.023438 -5.308594 7.039062 -4.433594 L 2.261719 -0.191406 C 1.277344 0.683594 0.984375 0.71875 0.640625 0.484375 Z M 0.523438 0.589844 "/></g></g></g><g fill="#000000" fill-opacity="1"><g transform="translate(574.940915, 211.914186)"><g><path d="M 0.433594 0.660156 L 1.5 2.285156 L 1.632812 2.199219 C 1.496094 1.808594 1.605469 1.53125 2.707031 0.808594 L 8.046875 -2.695312 C 9.148438 -3.421875 9.445312 -3.410156 9.75 -3.128906 L 9.882812 -3.214844 L 8.8125 -4.84375 L 8.679688 -4.757812 C 8.816406 -4.367188 8.707031 -4.089844 7.605469 -3.367188 L 2.265625 0.140625 C 1.164062 0.863281 0.867188 0.851562 0.5625 0.570312 Z M 0.433594 0.660156 "/></g></g></g><g fill="#000000" fill-opacity="1"><g transform="translate(580.06849, 220.199609)"><g><path d="M -0.0703125 -0.15625 L 0.574219 1.265625 L 0.71875 1.199219 C 0.601562 0.703125 1.085938 0.480469 2.058594 0.449219 L 4.359375 0.347656 L 6.125 4.230469 L 4.539062 5.929688 C 3.636719 6.890625 3.460938 6.984375 3.203125 6.660156 L 3.058594 6.726562 L 3.808594 8.371094 L 3.949219 8.304688 C 3.921875 8.003906 3.980469 7.644531 4.882812 6.683594 L 11.132812 0.0195312 L 10.542969 -0.515625 L 10.410156 -0.359375 C 10.269531 -0.1875 10.132812 -0.109375 9.898438 -0.0976562 L 1.964844 0.238281 C 0.636719 0.292969 0.3125 0.0625 0.0703125 -0.222656 Z M 4.578125 0.339844 L 9.988281 0.0976562 L 6.273438 4.070312 Z M 4.578125 0.339844 "/></g></g></g><g fill="#000000" fill-opacity="1"><g transform="translate(585.780252, 234.438733)"><g/></g></g></svg>