<svg xmlns="http://www.w3.org/2000/svg" xmlns:xlink="http://www.w3.org/1999/xlink" width="164" zoomAndPan="magnify" viewBox="0 0 123 171.750001" height="229" preserveAspectRatio="xMidYMid meet" version="1.0"><defs><g/><clipPath id="e80c940869"><path d="M 40.449219 54.15625 L 82.1875 54.15625 L 82.1875 118 L 40.449219 118 Z M 40.449219 54.15625 " clip-rule="nonzero"/></clipPath><clipPath id="cdb5f1f200"><path d="M 40.449219 97.144531 L 40.449219 75.046875 C 40.449219 63.5 49.796875 54.15625 61.296875 54.15625 C 72.84375 54.15625 82.1875 63.5 82.1875 75.046875 L 82.1875 97.144531 C 82.1875 108.691406 72.84375 118.035156 61.296875 118.035156 C 49.796875 117.988281 40.449219 108.644531 40.449219 97.144531 " clip-rule="nonzero"/></clipPath><clipPath id="0a91a95fcb"><path d="M 60 66.683594 L 66 66.683594 L 66 75 L 60 75 Z M 60 66.683594 " clip-rule="nonzero"/></clipPath><clipPath id="3d38927738"><path d="M 64 66.683594 L 67 66.683594 L 67 69 L 64 69 Z M 64 66.683594 " clip-rule="nonzero"/></clipPath><clipPath id="c8177f1165"><path d="M 56 74 L 62 74 L 62 105.628906 L 56 105.628906 Z M 56 74 " clip-rule="nonzero"/></clipPath><clipPath id="43f2f67e04"><path d="M 52.554688 72 L 69.777344 72 L 69.777344 99 L 52.554688 99 Z M 52.554688 72 " clip-rule="nonzero"/></clipPath></defs><g clip-path="url(#e80c940869)"><g clip-path="url(#cdb5f1f200)"><path fill="#f2d7d7" d="M 82.1875 54.15625 L 82.1875 117.988281 L 40.449219 117.988281 L 40.449219 54.15625 Z M 82.1875 54.15625 " fill-opacity="1" fill-rule="nonzero"/></g></g><g clip-path="url(#0a91a95fcb)"><path fill="#737373" d="M 62.785156 74.335938 C 62.128906 74.402344 61.511719 74.074219 61.070312 73.589844 C 60.582031 73.03125 60.371094 72.316406 60.398438 71.585938 C 60.421875 70.875 60.675781 70.195312 61.023438 69.585938 C 61.351562 69.011719 61.742188 68.496094 62.265625 68.101562 C 62.792969 67.691406 63.402344 67.414062 63.996094 67.117188 C 64.203125 67.019531 64.828125 66.691406 64.835938 67.144531 C 64.84375 67.308594 64.796875 67.488281 64.78125 67.652344 C 64.761719 67.871094 64.761719 68.09375 64.753906 68.324219 C 64.753906 68.554688 64.753906 68.78125 64.738281 69.011719 C 64.722656 69.234375 64.683594 69.464844 64.660156 69.683594 C 64.609375 69.996094 64.570312 70.300781 64.523438 70.621094 C 64.484375 70.882812 64.449219 71.144531 64.402344 71.40625 C 64.316406 71.875 64.171875 72.351562 63.996094 72.792969 C 63.851562 73.171875 63.699219 73.554688 63.441406 73.882812 C 63.21875 74.179688 62.921875 74.351562 62.550781 74.367188 C 62.433594 74.367188 62.320312 74.359375 62.199219 74.351562 C 62.078125 74.34375 62.078125 74.523438 62.199219 74.539062 C 62.496094 74.582031 62.792969 74.566406 63.074219 74.449219 C 63.433594 74.292969 63.671875 73.933594 63.859375 73.589844 C 64.1875 72.957031 64.417969 72.261719 64.5625 71.5625 C 64.609375 71.34375 64.636719 71.121094 64.675781 70.90625 C 64.78125 70.183594 64.929688 69.457031 64.949219 68.71875 C 64.957031 68.25 64.957031 67.789062 65.019531 67.324219 C 65.035156 67.175781 65.042969 67.011719 64.949219 66.878906 C 64.859375 66.757812 64.707031 66.734375 64.570312 66.75 C 64.195312 66.789062 63.835938 67.019531 63.496094 67.183594 C 63.183594 67.339844 62.855469 67.503906 62.558594 67.699219 C 61.96875 68.078125 61.460938 68.570312 61.078125 69.175781 C 60.703125 69.765625 60.382812 70.421875 60.277344 71.128906 C 60.148438 71.890625 60.253906 72.710938 60.660156 73.375 C 61.023438 73.957031 61.605469 74.433594 62.296875 74.546875 C 62.457031 74.574219 62.632812 74.589844 62.792969 74.566406 C 62.90625 74.515625 62.90625 74.320312 62.785156 74.335938 Z M 62.785156 74.335938 " fill-opacity="1" fill-rule="nonzero"/></g><path fill="#737373" d="M 64.730469 70.382812 C 65.1875 69.800781 65.644531 69.21875 66.101562 68.636719 C 66.199219 68.503906 66.308594 68.363281 66.40625 68.242188 C 66.421875 68.226562 66.445312 68.183594 66.46875 68.191406 C 66.535156 68.21875 66.535156 68.464844 66.542969 68.503906 C 66.566406 68.71875 66.566406 68.929688 66.558594 69.144531 C 66.519531 70.039062 66.207031 70.890625 65.835938 71.695312 C 65.644531 72.105469 65.4375 72.488281 65.242188 72.882812 C 65.082031 73.195312 64.941406 73.53125 64.675781 73.769531 C 64.144531 74.269531 63.378906 74.375 62.679688 74.3125 C 62.558594 74.300781 62.558594 74.484375 62.679688 74.5 C 63.335938 74.566406 64.035156 74.457031 64.585938 74.074219 C 64.898438 73.851562 65.101562 73.554688 65.277344 73.210938 C 65.492188 72.785156 65.714844 72.375 65.925781 71.941406 C 66.332031 71.085938 66.671875 70.195312 66.734375 69.242188 C 66.75 69.003906 66.742188 68.757812 66.726562 68.519531 C 66.710938 68.363281 66.710938 68.128906 66.566406 68.019531 C 66.375 67.898438 66.238281 68.152344 66.148438 68.265625 C 65.636719 68.929688 65.125 69.578125 64.601562 70.234375 C 64.523438 70.339844 64.660156 70.480469 64.730469 70.382812 Z M 64.730469 70.382812 " fill-opacity="1" fill-rule="nonzero"/><g clip-path="url(#3d38927738)"><path fill="#737373" d="M 65.066406 67.191406 C 65.195312 67.078125 65.421875 66.898438 65.589844 66.945312 C 65.691406 66.972656 65.742188 67.117188 65.773438 67.226562 C 65.859375 67.601562 65.8125 68.019531 65.757812 68.398438 C 65.742188 68.535156 65.707031 68.683594 65.683594 68.824219 C 65.660156 68.945312 65.835938 68.988281 65.867188 68.875 C 65.941406 68.503906 65.996094 68.128906 66.003906 67.75 C 66.011719 67.445312 66.019531 66.863281 65.652344 66.765625 C 65.394531 66.691406 65.132812 66.90625 64.949219 67.0625 C 64.851562 67.132812 64.980469 67.265625 65.066406 67.191406 Z M 65.066406 67.191406 " fill-opacity="1" fill-rule="nonzero"/></g><path fill="#737373" d="M 64.996094 78.992188 C 65.78125 78.640625 66.589844 78.363281 67.421875 78.164062 C 67.632812 78.109375 67.839844 78.066406 68.046875 78.027344 C 68.144531 78.007812 68.25 77.984375 68.335938 77.96875 C 68.433594 77.953125 68.570312 77.902344 68.648438 77.976562 C 68.785156 78.089844 68.785156 78.355469 68.769531 78.507812 C 68.746094 78.699219 68.65625 78.871094 68.5625 79.027344 C 68.359375 79.347656 68.070312 79.617188 67.785156 79.855469 C 67.488281 80.101562 67.160156 80.320312 66.824219 80.511719 C 66.476562 80.699219 66.125 80.855469 65.757812 80.96875 C 65.386719 81.09375 64.972656 81.191406 64.628906 80.945312 C 64.355469 80.75 64.195312 80.429688 64.042969 80.140625 C 63.851562 79.78125 63.671875 79.394531 63.808594 78.976562 C 63.929688 78.609375 64.21875 78.320312 64.484375 78.074219 C 64.761719 77.828125 65.066406 77.605469 65.394531 77.417969 C 66.046875 77.050781 66.765625 76.820312 67.503906 76.761719 C 67.671875 76.753906 67.878906 76.714844 68.046875 76.804688 C 68.191406 76.878906 68.273438 77.023438 68.3125 77.171875 C 68.402344 77.550781 68.167969 77.910156 67.960938 78.199219 C 67.480469 78.84375 66.902344 79.429688 66.269531 79.910156 C 65.964844 80.140625 65.636719 80.371094 65.261719 80.445312 C 64.921875 80.511719 64.5625 80.445312 64.265625 80.273438 C 64.113281 80.191406 63.984375 80.074219 63.867188 79.953125 C 63.785156 79.863281 63.65625 80.003906 63.738281 80.085938 C 63.976562 80.371094 64.324219 80.566406 64.691406 80.625 C 65.09375 80.699219 65.46875 80.617188 65.820312 80.429688 C 66.207031 80.222656 66.558594 79.929688 66.886719 79.632812 C 67.222656 79.335938 67.535156 79 67.824219 78.664062 C 68.089844 78.34375 68.394531 77.992188 68.488281 77.574219 C 68.5625 77.253906 68.480469 76.859375 68.191406 76.664062 C 68.03125 76.550781 67.832031 76.550781 67.640625 76.566406 C 67.429688 76.574219 67.230469 76.605469 67.039062 76.632812 C 66.628906 76.707031 66.238281 76.820312 65.84375 76.984375 C 65.46875 77.148438 65.117188 77.351562 64.78125 77.589844 C 64.449219 77.828125 64.128906 78.109375 63.890625 78.453125 C 63.632812 78.796875 63.511719 79.199219 63.625 79.625 C 63.683594 79.839844 63.785156 80.042969 63.890625 80.238281 C 63.976562 80.402344 64.074219 80.585938 64.179688 80.738281 C 64.402344 81.050781 64.699219 81.28125 65.101562 81.304688 C 65.523438 81.3125 65.972656 81.132812 66.359375 80.960938 C 67.125 80.625 67.886719 80.140625 68.457031 79.5 C 68.722656 79.207031 68.960938 78.835938 68.96875 78.417969 C 68.976562 78.246094 68.945312 78.027344 68.824219 77.886719 C 68.6875 77.730469 68.496094 77.753906 68.320312 77.796875 C 67.382812 77.960938 66.460938 78.230469 65.574219 78.582031 C 65.355469 78.664062 65.140625 78.753906 64.921875 78.863281 C 64.796875 78.878906 64.890625 79.050781 64.996094 78.992188 Z M 64.996094 78.992188 " fill-opacity="1" fill-rule="nonzero"/><g clip-path="url(#c8177f1165)"><path fill="#737373" d="M 58.1875 105.457031 C 57.707031 103.652344 57.367188 101.816406 57.167969 99.972656 C 56.910156 97.652344 56.878906 95.304688 57.082031 92.992188 C 57.265625 90.910156 57.640625 88.84375 58.074219 86.808594 C 58.441406 85.019531 58.859375 83.242188 59.347656 81.488281 C 59.949219 79.328125 60.660156 77.1875 61.46875 75.097656 C 61.582031 74.8125 61.695312 74.523438 61.808594 74.238281 C 61.855469 74.121094 61.671875 74.082031 61.621094 74.1875 C 60.765625 76.328125 60.019531 78.519531 59.363281 80.738281 C 58.84375 82.511719 58.410156 84.292969 58.015625 86.085938 C 57.585938 88.121094 57.175781 90.171875 56.953125 92.238281 C 56.695312 94.558594 56.6875 96.894531 56.894531 99.207031 C 57.0625 101.160156 57.394531 103.097656 57.855469 104.992188 C 57.90625 105.164062 57.945312 105.351562 57.992188 105.523438 C 58.042969 105.621094 58.210938 105.582031 58.1875 105.457031 Z M 58.1875 105.457031 " fill-opacity="1" fill-rule="nonzero"/></g><path fill="#737373" d="M 56.960938 97.027344 C 57.578125 94.542969 58.242188 92.074219 58.972656 89.628906 C 59.316406 88.480469 59.660156 87.332031 60.042969 86.203125 C 60.40625 85.175781 60.835938 84.175781 61.40625 83.265625 C 62.113281 82.125 62.992188 81.117188 64.011719 80.265625 C 64.097656 80.191406 63.976562 80.050781 63.882812 80.132812 C 62.96875 80.886719 62.167969 81.773438 61.503906 82.765625 C 60.878906 83.691406 60.398438 84.691406 60.003906 85.75 C 59.605469 86.824219 59.285156 87.933594 58.945312 89.03125 C 58.5625 90.300781 58.1875 91.582031 57.839844 92.859375 C 57.464844 94.230469 57.113281 95.601562 56.769531 96.976562 C 56.75 97.09375 56.929688 97.148438 56.960938 97.027344 Z M 56.960938 97.027344 " fill-opacity="1" fill-rule="nonzero"/><g clip-path="url(#43f2f67e04)"><path fill="#737373" d="M 56.832031 98.363281 C 56.457031 96.632812 55.839844 94.984375 55.253906 93.328125 C 54.667969 91.6875 54.101562 90.023438 53.8125 88.285156 C 53.5 86.382812 53.652344 84.457031 53.789062 82.542969 C 53.859375 81.558594 53.941406 80.566406 54.027344 79.582031 C 54.117188 78.617188 54.234375 77.65625 54.332031 76.679688 C 54.421875 75.777344 54.476562 74.851562 54.324219 73.949219 C 54.195312 73.234375 53.933594 72.226562 53.121094 72.0625 C 52.960938 72.023438 52.785156 72.046875 52.625 72.113281 C 52.585938 72.128906 52.554688 72.160156 52.5625 72.203125 C 52.601562 72.589844 52.746094 72.941406 52.90625 73.285156 C 53.089844 73.664062 53.257812 74.03125 53.433594 74.402344 C 53.796875 75.15625 54.148438 75.910156 54.507812 76.664062 C 55.230469 78.191406 55.949219 79.699219 56.671875 81.222656 C 57.394531 82.742188 58.113281 84.25 58.828125 85.765625 C 59.417969 87.03125 59.8125 88.398438 59.917969 89.792969 C 59.972656 90.449219 59.957031 91.105469 59.898438 91.753906 C 59.867188 92.164062 59.828125 92.574219 59.738281 92.976562 C 59.652344 93.394531 59.515625 93.796875 59.363281 94.199219 C 59.234375 94.535156 59.089844 94.855469 58.929688 95.164062 C 58.84375 95.335938 58.746094 95.519531 58.652344 95.683594 C 58.578125 95.804688 58.464844 96.058594 58.339844 96.117188 C 58.144531 96.191406 58.066406 95.847656 58.066406 95.722656 C 58.058594 95.527344 58.113281 95.335938 58.179688 95.15625 C 58.304688 94.804688 58.464844 94.46875 58.617188 94.125 C 58.914062 93.445312 59.234375 92.753906 59.597656 92.097656 C 60.210938 90.964844 60.980469 89.925781 61.886719 89.015625 C 63.84375 87.046875 66.339844 85.71875 69.027344 85.136719 C 69.242188 85.085938 69.464844 85.046875 69.691406 85.003906 C 69.777344 84.988281 69.769531 84.847656 69.691406 84.816406 C 68.921875 84.621094 68.328125 85.480469 67.894531 85.996094 C 67.367188 86.628906 66.847656 87.261719 66.339844 87.90625 C 65.324219 89.203125 64.316406 90.515625 63.191406 91.722656 C 62.558594 92.394531 61.894531 93.042969 61.183594 93.625 C 61.09375 93.699219 61.214844 93.828125 61.308594 93.753906 C 62.542969 92.746094 63.625 91.566406 64.652344 90.335938 C 65.667969 89.097656 66.636719 87.800781 67.664062 86.570312 C 67.945312 86.226562 68.230469 85.890625 68.527344 85.5625 C 68.816406 85.25 69.203125 84.890625 69.660156 84.996094 C 69.660156 84.929688 69.660156 84.875 69.660156 84.808594 C 68.519531 85.003906 67.414062 85.316406 66.351562 85.765625 C 64.929688 86.367188 63.617188 87.203125 62.457031 88.226562 C 61.496094 89.082031 60.621094 90.074219 59.933594 91.179688 C 59.515625 91.835938 59.164062 92.542969 58.84375 93.238281 C 58.675781 93.597656 58.515625 93.96875 58.355469 94.328125 C 58.210938 94.664062 58.027344 95 57.953125 95.363281 C 57.890625 95.648438 57.890625 96.035156 58.144531 96.230469 C 58.433594 96.453125 58.660156 96.074219 58.785156 95.863281 C 59.15625 95.246094 59.460938 94.574219 59.699219 93.894531 C 59.8125 93.589844 59.917969 93.261719 59.972656 92.941406 C 60.070312 92.417969 60.125 91.867188 60.15625 91.335938 C 60.246094 89.851562 60.035156 88.34375 59.554688 86.933594 C 59.339844 86.316406 59.058594 85.71875 58.777344 85.128906 C 58.410156 84.339844 58.035156 83.5625 57.65625 82.773438 C 56.910156 81.191406 56.160156 79.625 55.414062 78.042969 C 54.667969 76.460938 53.914062 74.894531 53.171875 73.308594 C 53.003906 72.941406 52.808594 72.570312 52.785156 72.160156 C 52.769531 72.1875 52.738281 72.226562 52.722656 72.253906 C 53.097656 72.089844 53.507812 72.308594 53.730469 72.628906 C 53.972656 72.972656 54.082031 73.410156 54.164062 73.820312 C 54.347656 74.703125 54.300781 75.632812 54.210938 76.523438 C 54.125 77.476562 54.003906 78.417969 53.914062 79.363281 C 53.828125 80.320312 53.746094 81.28125 53.675781 82.242188 C 53.539062 84.117188 53.378906 86.023438 53.628906 87.882812 C 53.859375 89.582031 54.386719 91.210938 54.957031 92.835938 C 55.527344 94.460938 56.144531 96.066406 56.558594 97.742188 C 56.617188 97.953125 56.65625 98.160156 56.703125 98.371094 C 56.679688 98.535156 56.855469 98.480469 56.832031 98.363281 Z M 56.832031 98.363281 " fill-opacity="1" fill-rule="nonzero"/></g><g fill="#000000" fill-opacity="1"><g transform="translate(36.71122, 70.686618)"><g><path d="M 0.0703125 -0.222656 L 0.242188 -0.777344 L 0.199219 -0.792969 C 0.132812 -0.6875 0.0507812 -0.660156 -0.324219 -0.777344 L -1.34375 -1.09375 L -1.132812 -1.75 C -0.996094 -2.171875 -0.875 -2.230469 -0.714844 -2.214844 L -0.699219 -2.261719 L -1.242188 -2.429688 L -1.253906 -2.386719 C -1.113281 -2.304688 -1.050781 -2.1875 -1.183594 -1.765625 L -1.394531 -1.113281 L -2.601562 -1.488281 L -2.339844 -2.328125 C -2.226562 -2.695312 -2.082031 -2.820312 -1.78125 -2.859375 L -1.777344 -2.898438 L -2.195312 -2.984375 L -2.777344 -1.117188 L -2.734375 -1.101562 C -2.667969 -1.207031 -2.585938 -1.234375 -2.210938 -1.117188 L -0.394531 -0.546875 C -0.0195312 -0.429688 0.03125 -0.359375 0.0234375 -0.238281 Z M 0.0703125 -0.222656 "/></g></g></g><g fill="#000000" fill-opacity="1"><g transform="translate(38.121131, 66.724472)"><g><path d="M 0.105469 -0.207031 L 0.992188 -1.925781 L 0.628906 -2.140625 L 0.601562 -2.113281 C 0.785156 -1.875 0.8125 -1.699219 0.636719 -1.355469 L 0.324219 -0.75 C 0.273438 -0.652344 0.191406 -0.625 0.09375 -0.675781 L -1.878906 -1.691406 C -2.226562 -1.871094 -2.269531 -1.949219 -2.238281 -2.070312 L -2.28125 -2.089844 L -2.546875 -1.574219 L -2.503906 -1.554688 C -2.425781 -1.644531 -2.335938 -1.65625 -1.988281 -1.476562 L -0.296875 -0.609375 C 0.0507812 -0.429688 0.09375 -0.351562 0.0664062 -0.230469 Z M 0.105469 -0.207031 "/></g></g></g><g fill="#000000" fill-opacity="1"><g transform="translate(40.104965, 63.131585)"><g><path d="M 1.097656 -1.324219 C 1.542969 -1.886719 1.671875 -2.78125 0.832031 -3.445312 C 0.0117188 -4.089844 -0.859375 -3.785156 -1.304688 -3.21875 C -1.867188 -2.507812 -1.746094 -1.648438 -1.035156 -1.089844 C -0.214844 -0.441406 0.648438 -0.753906 1.097656 -1.324219 Z M -1.074219 -1.414062 C -1.625 -1.847656 -1.765625 -2.507812 -1.320312 -3.070312 C -0.824219 -3.699219 0.183594 -3.667969 0.867188 -3.128906 C 1.4375 -2.679688 1.546875 -2.023438 1.101562 -1.460938 C 0.605469 -0.832031 -0.398438 -0.878906 -1.074219 -1.414062 Z M -1.074219 -1.414062 "/></g></g></g><g fill="#000000" fill-opacity="1"><g transform="translate(43.517989, 59.16254)"><g><path d="M 1.855469 -1.539062 C 1.925781 -1.597656 1.980469 -1.667969 1.996094 -1.695312 L 1.96875 -1.726562 C 1.949219 -1.707031 1.9375 -1.691406 1.917969 -1.675781 C 1.8125 -1.585938 1.597656 -1.648438 1.167969 -1.878906 C 0.714844 -2.121094 0.453125 -2.324219 -0.0351562 -2.019531 C 0.34375 -2.414062 0.378906 -2.851562 0.113281 -3.164062 C -0.152344 -3.480469 -0.550781 -3.449219 -1.15625 -2.933594 L -1.753906 -2.425781 L -1.722656 -2.390625 C -1.613281 -2.445312 -1.527344 -2.421875 -1.273438 -2.125 L -0.0429688 -0.675781 C 0.210938 -0.375 0.21875 -0.289062 0.148438 -0.1875 L 0.179688 -0.152344 L 0.621094 -0.527344 L 0.589844 -0.5625 C 0.480469 -0.507812 0.394531 -0.53125 0.140625 -0.828125 L -0.515625 -1.601562 L -0.289062 -1.789062 C 0.214844 -2.21875 0.507812 -1.949219 1.046875 -1.683594 C 1.421875 -1.5 1.621094 -1.339844 1.855469 -1.539062 Z M -0.554688 -1.644531 L -1.402344 -2.644531 C -1.34375 -2.695312 -1.296875 -2.742188 -1.242188 -2.789062 C -0.679688 -3.269531 -0.296875 -3.238281 -0.0273438 -2.921875 C 0.234375 -2.617188 0.167969 -2.257812 -0.207031 -1.9375 Z M -0.554688 -1.644531 "/></g></g></g><g fill="#000000" fill-opacity="1"><g transform="translate(46.979382, 56.441864)"><g><path d="M 0.203125 -0.117188 L 1.972656 -1.140625 L 1.75 -1.597656 L 1.710938 -1.585938 C 1.769531 -1.207031 1.625 -1.003906 1.292969 -0.8125 L 0.675781 -0.457031 C 0.582031 -0.402344 0.5 -0.421875 0.445312 -0.519531 L -0.222656 -1.671875 L 0.382812 -2.023438 C 0.765625 -2.246094 0.894531 -2.207031 1.003906 -2.089844 L 1.042969 -2.113281 L 0.761719 -2.601562 L 0.71875 -2.578125 C 0.769531 -2.425781 0.738281 -2.292969 0.351562 -2.070312 L -0.253906 -1.722656 L -0.910156 -2.859375 L -0.246094 -3.242188 C 0.0859375 -3.433594 0.355469 -3.441406 0.632812 -3.21875 L 0.664062 -3.246094 L 0.363281 -3.660156 L -1.292969 -2.703125 L -1.269531 -2.660156 C -1.152344 -2.695312 -1.070312 -2.65625 -0.875 -2.316406 L 0.078125 -0.671875 C 0.277344 -0.332031 0.269531 -0.242188 0.179688 -0.15625 Z M 0.203125 -0.117188 "/></g></g></g><g fill="#000000" fill-opacity="1"><g transform="translate(50.786626, 54.422926)"><g><path d="M 2.277344 -0.785156 C 2.367188 -0.816406 2.441406 -0.863281 2.464844 -0.886719 L 2.449219 -0.925781 C 2.425781 -0.914062 2.410156 -0.902344 2.382812 -0.894531 C 2.257812 -0.847656 2.078125 -0.980469 1.753906 -1.347656 C 1.417969 -1.734375 1.242188 -2.019531 0.675781 -1.902344 C 1.171875 -2.136719 1.359375 -2.535156 1.21875 -2.921875 C 1.082031 -3.3125 0.695312 -3.421875 -0.0507812 -3.152344 L -0.789062 -2.890625 L -0.773438 -2.84375 C -0.648438 -2.855469 -0.578125 -2.804688 -0.445312 -2.4375 L 0.199219 -0.648438 C 0.332031 -0.277344 0.308594 -0.191406 0.203125 -0.125 L 0.222656 -0.078125 L 0.765625 -0.273438 L 0.75 -0.320312 C 0.628906 -0.308594 0.554688 -0.359375 0.421875 -0.726562 L 0.0820312 -1.679688 L 0.359375 -1.777344 C 0.980469 -2 1.164062 -1.644531 1.574219 -1.207031 C 1.859375 -0.902344 1.988281 -0.683594 2.277344 -0.785156 Z M 0.0625 -1.734375 L -0.382812 -2.96875 C -0.3125 -2.996094 -0.25 -3.023438 -0.183594 -3.046875 C 0.515625 -3.296875 0.863281 -3.136719 1.003906 -2.742188 C 1.140625 -2.367188 0.953125 -2.054688 0.488281 -1.886719 Z M 0.0625 -1.734375 "/></g></g></g><g fill="#000000" fill-opacity="1"><g transform="translate(55.017093, 53.11301)"><g><path d="M 0.230469 -0.046875 L 0.800781 -0.15625 L 0.789062 -0.203125 C 0.667969 -0.210938 0.601562 -0.269531 0.527344 -0.65625 L 0.160156 -2.523438 C 0.0859375 -2.90625 0.121094 -2.988281 0.234375 -3.039062 L 0.226562 -3.085938 L -0.34375 -2.972656 L -0.335938 -2.929688 C -0.210938 -2.921875 -0.148438 -2.859375 -0.0742188 -2.476562 L 0.292969 -0.609375 C 0.367188 -0.222656 0.332031 -0.144531 0.222656 -0.0898438 Z M -0.375 -3.164062 L -0.355469 -3.144531 L 0.210938 -3.484375 C 0.273438 -3.523438 0.300781 -3.546875 0.292969 -3.585938 C 0.28125 -3.632812 0.179688 -3.667969 0.113281 -3.65625 C 0.0742188 -3.648438 0.0429688 -3.632812 -0.0234375 -3.558594 Z M -0.375 -3.164062 "/></g></g></g><g fill="#000000" fill-opacity="1"><g transform="translate(57.87833, 52.63198)"><g><path d="M -0.0507812 0.00390625 L 0.414062 -0.015625 L 0.410156 -0.0625 C 0.261719 -0.0859375 0.253906 -0.246094 0.355469 -0.519531 L 0.585938 -1.164062 L 1.855469 -1.210938 L 2.144531 -0.585938 C 2.308594 -0.226562 2.316406 -0.167969 2.195312 -0.132812 L 2.199219 -0.0859375 L 2.734375 -0.109375 L 2.734375 -0.15625 C 2.648438 -0.179688 2.554688 -0.238281 2.390625 -0.59375 L 1.257812 -3.066406 L 1.042969 -2.964844 L 1.070312 -2.910156 C 1.105469 -2.851562 1.109375 -2.804688 1.085938 -2.742188 L 0.285156 -0.515625 C 0.152344 -0.144531 0.0507812 -0.078125 -0.0546875 -0.0429688 Z M 0.609375 -1.222656 L 1.152344 -2.742188 L 1.828125 -1.273438 Z M 0.609375 -1.222656 "/></g></g></g><g fill="#000000" fill-opacity="1"><g transform="translate(62.446469, 52.659497)"><g/></g></g><g fill="#000000" fill-opacity="1"><g transform="translate(65.208433, 53.034327)"><g><path d="M 0.226562 0.0625 L 1.261719 0.351562 C 2.164062 0.601562 2.929688 0.113281 3.15625 -0.726562 C 3.359375 -1.460938 3.03125 -2.257812 1.960938 -2.554688 L 1.023438 -2.8125 L 1.011719 -2.769531 C 1.121094 -2.707031 1.148438 -2.625 1.042969 -2.246094 L 0.535156 -0.414062 C 0.429688 -0.0351562 0.363281 0.0195312 0.238281 0.0195312 Z M 0.71875 -0.183594 L 1.40625 -2.652344 L 1.808594 -2.539062 C 2.726562 -2.28125 3.085938 -1.46875 2.863281 -0.671875 C 2.632812 0.160156 2.074219 0.515625 1.289062 0.296875 L 0.902344 0.1875 C 0.675781 0.125 0.667969 0.0078125 0.71875 -0.183594 Z M 0.71875 -0.183594 "/></g></g></g><g fill="#000000" fill-opacity="1"><g transform="translate(69.845473, 54.52184)"><g><path d="M -0.046875 -0.0234375 L 0.371094 0.183594 L 0.390625 0.144531 C 0.269531 0.0507812 0.339844 -0.0898438 0.5625 -0.28125 L 1.074219 -0.734375 L 2.210938 -0.164062 L 2.160156 0.523438 C 2.132812 0.917969 2.109375 0.972656 1.988281 0.945312 L 1.96875 0.988281 L 2.445312 1.226562 L 2.46875 1.1875 C 2.40625 1.121094 2.351562 1.027344 2.382812 0.636719 L 2.582031 -2.078125 L 2.347656 -2.089844 L 2.34375 -2.03125 C 2.34375 -1.964844 2.328125 -1.917969 2.277344 -1.875 L 0.5 -0.3125 C 0.203125 -0.0507812 0.0820312 -0.0429688 -0.0234375 -0.0664062 Z M 1.125 -0.777344 L 2.332031 -1.84375 L 2.214844 -0.230469 Z M 1.125 -0.777344 "/></g></g></g><g fill="#000000" fill-opacity="1"><g transform="translate(73.821513, 56.694854)"><g><path d="M 0.183594 0.144531 L 0.644531 0.5 L 0.671875 0.460938 C 0.597656 0.363281 0.601562 0.277344 0.839844 -0.0351562 L 1.460938 -0.832031 L 2.863281 0.253906 L 2.242188 1.050781 C 2.003906 1.363281 1.917969 1.386719 1.804688 1.339844 L 1.777344 1.375 L 2.234375 1.730469 L 2.265625 1.695312 C 2.1875 1.597656 2.191406 1.507812 2.433594 1.199219 L 3.597656 -0.304688 C 3.835938 -0.617188 3.921875 -0.640625 4.035156 -0.59375 L 4.0625 -0.628906 L 3.605469 -0.984375 L 3.574219 -0.949219 C 3.652344 -0.851562 3.648438 -0.761719 3.40625 -0.453125 L 2.898438 0.207031 L 1.496094 -0.878906 L 2.003906 -1.539062 C 2.246094 -1.847656 2.332031 -1.875 2.441406 -1.824219 L 2.472656 -1.863281 L 2.011719 -2.21875 L 1.984375 -2.179688 C 2.058594 -2.082031 2.054688 -1.996094 1.816406 -1.683594 L 0.652344 -0.179688 C 0.410156 0.128906 0.328125 0.15625 0.214844 0.105469 Z M 0.183594 0.144531 "/></g></g></g><g fill="#000000" fill-opacity="1"><g transform="translate(77.549704, 59.838442)"><g><path d="M 0.15625 0.175781 L 1.4375 1.621094 L 1.773438 1.359375 L 1.753906 1.324219 C 1.464844 1.410156 1.289062 1.367188 1.035156 1.082031 L 0.582031 0.570312 C 0.507812 0.488281 0.515625 0.40625 0.597656 0.332031 L 2.253906 -1.140625 C 2.546875 -1.402344 2.636719 -1.414062 2.738281 -1.34375 L 2.773438 -1.375 L 2.386719 -1.808594 L 2.351562 -1.777344 C 2.410156 -1.667969 2.390625 -1.582031 2.09375 -1.320312 L 0.675781 -0.0585938 C 0.378906 0.203125 0.292969 0.214844 0.191406 0.144531 Z M 0.15625 0.175781 "/></g></g></g><g fill="#000000" fill-opacity="1"><g transform="translate(80.165841, 63.054292)"><g><path d="M 0.128906 0.195312 L 0.445312 0.679688 L 0.484375 0.65625 C 0.445312 0.539062 0.476562 0.457031 0.804688 0.242188 L 2.394531 -0.804688 C 2.722656 -1.019531 2.8125 -1.015625 2.902344 -0.933594 L 2.941406 -0.957031 L 2.625 -1.441406 L 2.585938 -1.417969 C 2.625 -1.300781 2.59375 -1.21875 2.265625 -1.003906 L 0.675781 0.0429688 C 0.347656 0.257812 0.257812 0.253906 0.167969 0.171875 Z M 0.128906 0.195312 "/></g></g></g><g fill="#000000" fill-opacity="1"><g transform="translate(81.692557, 65.521225)"><g><path d="M -0.0195312 -0.046875 L 0.171875 0.375 L 0.214844 0.355469 C 0.179688 0.207031 0.324219 0.144531 0.613281 0.132812 L 1.296875 0.101562 L 1.824219 1.261719 L 1.351562 1.765625 C 1.082031 2.050781 1.03125 2.078125 0.953125 1.984375 L 0.910156 2.003906 L 1.132812 2.492188 L 1.175781 2.472656 C 1.167969 2.382812 1.183594 2.277344 1.453125 1.992188 L 3.316406 0.00390625 L 3.140625 -0.152344 L 3.097656 -0.109375 C 3.058594 -0.0546875 3.015625 -0.03125 2.949219 -0.0273438 L 0.585938 0.0703125 C 0.191406 0.0859375 0.09375 0.0195312 0.0234375 -0.0664062 Z M 1.363281 0.101562 L 2.972656 0.0273438 L 1.867188 1.210938 Z M 1.363281 0.101562 "/></g></g></g><g fill="#000000" fill-opacity="1"><g transform="translate(83.393195, 69.760833)"><g/></g></g></svg>